<svg width="128" height="128" viewBox="0 0 128 128" fill="none" xmlns="http://www.w3.org/2000/svg">
<path d="M80.0713 50V32.2861C80.0713 23.4101 72.876 16.2139 64 16.2139C55.124 16.2139 47.9287 23.4101 47.9287 32.2861V50H80.0713ZM89 50C94.5228 50 99 54.4772 99 60V110C99 115.523 94.5228 120 89 120H39C33.4772 120 29 115.523 29 110V60C29 54.4772 33.4772 50 39 50V32C39 18.1929 50.1929 7 64 7C77.8071 7 89 18.1929 89 32V50Z" fill="#8338EC"/>
<mask id="path-2-inside-1_0_1" fill="white">
<path d="M63 51C63 51.3682 63.2988 51.667 63.667 51.667H64.333V54.333H63.667C63.2988 54.333 63 54.6318 63 55H57V51H63Z"/>
</mask>
<path d="M63 51C63 51.3682 63.2988 51.667 63.667 51.667H64.333V54.333H63.667C63.2988 54.333 63 54.6318 63 55H57V51H63Z" fill="white"/>
<path d="M63 51H63.5V50.5H63V51ZM64.333 51.667H64.833V51.167H64.333V51.667ZM64.333 54.333V54.833H64.833V54.333H64.333ZM63 55V55.5H63.5V55H63ZM57 55H56.5V55.5H57V55ZM57 51V50.5H56.5V51H57ZM63 51H62.5C62.5 51.6443 63.0227 52.167 63.667 52.167V51.667V51.167C63.5749 51.167 63.5 51.092 63.5 51H63ZM63.667 51.667V52.167H64.333V51.667V51.167H63.667V51.667ZM64.333 51.667H63.833V54.333H64.333H64.833V51.667H64.333ZM64.333 54.333V53.833H63.667V54.333V54.833H64.333V54.333ZM63.667 54.333V53.833C63.0227 53.833 62.5 54.3557 62.5 55H63H63.5C63.5 54.908 63.5749 54.833 63.667 54.833V54.333ZM63 55V54.5H57V55V55.5H63V55ZM57 55H57.5V51H57H56.5V55H57ZM57 51V51.5H63V51V50.5H57V51Z" fill="#8338EC" mask="url(#path-2-inside-1_0_1)"/>
<mask id="path-4-inside-2_0_1" fill="white">
<path d="M63 56.333C63 56.7012 63.2988 57 63.667 57H64.333V59.667H63.667C63.2989 59.667 63.0002 59.965 63 60.333H57V56.333H63Z"/>
</mask>
<path d="M63 56.333C63 56.7012 63.2988 57 63.667 57H64.333V59.667H63.667C63.2989 59.667 63.0002 59.965 63 60.333H57V56.333H63Z" fill="white"/>
<path d="M63 56.333H63.5V55.833H63V56.333ZM64.333 57H64.833V56.5H64.333V57ZM64.333 59.667V60.167H64.833V59.667H64.333ZM63 60.333V60.833H63.4998L63.5 60.3332L63 60.333ZM57 60.333H56.5V60.833H57V60.333ZM57 56.333V55.833H56.5V56.333H57ZM63 56.333H62.5C62.5 56.9773 63.0227 57.5 63.667 57.5V57V56.5C63.5749 56.5 63.5 56.4251 63.5 56.333H63ZM63.667 57V57.5H64.333V57V56.5H63.667V57ZM64.333 57H63.833V59.667H64.333H64.833V57H64.333ZM64.333 59.667V59.167H63.667V59.667V60.167H64.333V59.667ZM63.667 59.667V59.167C63.0235 59.167 62.5003 59.6881 62.5 60.3328L63 60.333L63.5 60.3332C63.5 60.2419 63.5743 60.167 63.667 60.167V59.667ZM63 60.333V59.833H57V60.333V60.833H63V60.333ZM57 60.333H57.5V56.333H57H56.5V60.333H57ZM57 56.333V56.833H63V56.333V55.833H57V56.333Z" fill="#8338EC" mask="url(#path-4-inside-2_0_1)"/>
<mask id="path-6-inside-3_0_1" fill="white">
<path d="M64.333 53.667C64.3328 54.035 64.0341 54.334 63.666 54.334H63V57H63.667C64.035 57.0002 64.333 57.2989 64.333 57.667H70.333V53.667H64.333Z"/>
</mask>
<path d="M64.333 53.667C64.3328 54.035 64.0341 54.334 63.666 54.334H63V57H63.667C64.035 57.0002 64.333 57.2989 64.333 57.667H70.333V53.667H64.333Z" fill="white"/>
<path d="M64.333 53.667L63.833 53.6668L63.8332 53.167H64.333V53.667ZM63 54.334H62.5V53.834H63V54.334ZM63 57V57.5H62.5V57H63ZM63.667 57L63.667 56.5L63.6672 56.5L63.667 57ZM64.333 57.667V58.167H63.833V57.667H64.333ZM70.333 57.667H70.833V58.167H70.333V57.667ZM70.333 53.667V53.167H70.833V53.667H70.333ZM64.333 53.667L64.833 53.6672C64.8327 54.311 64.3105 54.834 63.666 54.834V54.334V53.834C63.7577 53.834 63.833 53.7591 63.833 53.6668L64.333 53.667ZM63.666 54.334V54.834H63V54.334V53.834H63.666V54.334ZM63 54.334H63.5V57H63H62.5V54.334H63ZM63 57V56.5H63.667V57V57.5H63V57ZM63.667 57L63.6672 56.5C64.3119 56.5003 64.833 57.0235 64.833 57.667H64.333H63.833C63.833 57.5743 63.7581 57.5 63.6668 57.5L63.667 57ZM64.333 57.667V57.167H70.333V57.667V58.167H64.333V57.667ZM70.333 57.667H69.833V53.667H70.333H70.833V57.667H70.333ZM70.333 53.667V54.167H64.333V53.667V53.167H70.333V53.667Z" fill="#8338EC" mask="url(#path-6-inside-3_0_1)"/>
<mask id="path-8-inside-4_0_1" fill="white">
<path d="M64.333 59C64.333 59.3682 64.0342 59.667 63.666 59.667H63V62.333H63.667C64.035 62.3332 64.333 62.6319 64.333 63H70.333V59H64.333Z"/>
</mask>
<path d="M64.333 59C64.333 59.3682 64.0342 59.667 63.666 59.667H63V62.333H63.667C64.035 62.3332 64.333 62.6319 64.333 63H70.333V59H64.333Z" fill="white"/>
<path d="M64.333 59H63.833V58.5H64.333V59ZM63 59.667H62.5V59.167H63V59.667ZM63 62.333V62.833H62.5V62.333H63ZM63.667 62.333L63.667 61.833L63.6672 61.833L63.667 62.333ZM64.333 63V63.5H63.833V63H64.333ZM70.333 63H70.833V63.5H70.333V63ZM70.333 59V58.5H70.833V59H70.333ZM64.333 59H64.833C64.833 59.6443 64.3103 60.167 63.666 60.167V59.667V59.167C63.7581 59.167 63.833 59.092 63.833 59H64.333ZM63.666 59.667V60.167H63V59.667V59.167H63.666V59.667ZM63 59.667H63.5V62.333H63H62.5V59.667H63ZM63 62.333V61.833H63.667V62.333V62.833H63V62.333ZM63.667 62.333L63.6672 61.833C64.3119 61.8333 64.833 62.3565 64.833 63H64.333H63.833C63.833 62.9073 63.7581 62.8331 63.6668 62.833L63.667 62.333ZM64.333 63V62.5H70.333V63V63.5H64.333V63ZM70.333 63H69.833V59H70.333H70.833V63H70.333ZM70.333 59V59.5H64.333V59V58.5H70.333V59Z" fill="#8338EC" mask="url(#path-8-inside-4_0_1)"/>
<mask id="path-10-inside-5_0_1" fill="white">
<path d="M63 62C63 62.3682 63.2988 62.667 63.667 62.667H64.333V65.333H63.667C63.2988 65.333 63 65.6318 63 66H57V62H63Z"/>
</mask>
<path d="M63 62C63 62.3682 63.2988 62.667 63.667 62.667H64.333V65.333H63.667C63.2988 65.333 63 65.6318 63 66H57V62H63Z" fill="white"/>
<path d="M63 62H63.5V61.5H63V62ZM64.333 62.667H64.833V62.167H64.333V62.667ZM64.333 65.333V65.833H64.833V65.333H64.333ZM63 66V66.5H63.5V66H63ZM57 66H56.5V66.5H57V66ZM57 62V61.5H56.5V62H57ZM63 62H62.5C62.5 62.6443 63.0227 63.167 63.667 63.167V62.667V62.167C63.5749 62.167 63.5 62.092 63.5 62H63ZM63.667 62.667V63.167H64.333V62.667V62.167H63.667V62.667ZM64.333 62.667H63.833V65.333H64.333H64.833V62.667H64.333ZM64.333 65.333V64.833H63.667V65.333V65.833H64.333V65.333ZM63.667 65.333V64.833C63.0227 64.833 62.5 65.3557 62.5 66H63H63.5C63.5 65.908 63.5749 65.833 63.667 65.833V65.333ZM63 66V65.5H57V66V66.5H63V66ZM57 66H57.5V62H57H56.5V66H57ZM57 62V62.5H63V62V61.5H57V62Z" fill="#8338EC" mask="url(#path-10-inside-5_0_1)"/>
<mask id="path-12-inside-6_0_1" fill="white">
<path d="M63 67.333C63 67.7012 63.2988 68 63.667 68H64.333V70.667H63.667C63.2989 70.667 63.0002 70.965 63 71.333H57V67.333H63Z"/>
</mask>
<path d="M63 67.333C63 67.7012 63.2988 68 63.667 68H64.333V70.667H63.667C63.2989 70.667 63.0002 70.965 63 71.333H57V67.333H63Z" fill="white"/>
<path d="M63 67.333H63.5V66.833H63V67.333ZM64.333 68H64.833V67.5H64.333V68ZM64.333 70.667V71.167H64.833V70.667H64.333ZM63 71.333V71.833H63.4998L63.5 71.3332L63 71.333ZM57 71.333H56.5V71.833H57V71.333ZM57 67.333V66.833H56.5V67.333H57ZM63 67.333H62.5C62.5 67.9773 63.0227 68.5 63.667 68.5V68V67.5C63.5749 67.5 63.5 67.4251 63.5 67.333H63ZM63.667 68V68.5H64.333V68V67.5H63.667V68ZM64.333 68H63.833V70.667H64.333H64.833V68H64.333ZM64.333 70.667V70.167H63.667V70.667V71.167H64.333V70.667ZM63.667 70.667V70.167C63.0235 70.167 62.5003 70.6881 62.5 71.3328L63 71.333L63.5 71.3332C63.5 71.2419 63.5743 71.167 63.667 71.167V70.667ZM63 71.333V70.833H57V71.333V71.833H63V71.333ZM57 71.333H57.5V67.333H57H56.5V71.333H57ZM57 67.333V67.833H63V67.333V66.833H57V67.333Z" fill="#8338EC" mask="url(#path-12-inside-6_0_1)"/>
<mask id="path-14-inside-7_0_1" fill="white">
<path d="M64.333 64.667C64.3328 65.035 64.0341 65.334 63.666 65.334H63V68H63.667C64.035 68.0002 64.333 68.2989 64.333 68.667H70.333V64.667H64.333Z"/>
</mask>
<path d="M64.333 64.667C64.3328 65.035 64.0341 65.334 63.666 65.334H63V68H63.667C64.035 68.0002 64.333 68.2989 64.333 68.667H70.333V64.667H64.333Z" fill="white"/>
<path d="M64.333 64.667L63.833 64.6668L63.8332 64.167H64.333V64.667ZM63 65.334H62.5V64.834H63V65.334ZM63 68V68.5H62.5V68H63ZM63.667 68L63.667 67.5L63.6672 67.5L63.667 68ZM64.333 68.667V69.167H63.833V68.667H64.333ZM70.333 68.667H70.833V69.167H70.333V68.667ZM70.333 64.667V64.167H70.833V64.667H70.333ZM64.333 64.667L64.833 64.6672C64.8327 65.311 64.3105 65.834 63.666 65.834V65.334V64.834C63.7577 64.834 63.833 64.7591 63.833 64.6668L64.333 64.667ZM63.666 65.334V65.834H63V65.334V64.834H63.666V65.334ZM63 65.334H63.5V68H63H62.5V65.334H63ZM63 68V67.5H63.667V68V68.5H63V68ZM63.667 68L63.6672 67.5C64.3119 67.5003 64.833 68.0235 64.833 68.667H64.333H63.833C63.833 68.5743 63.7581 68.5 63.6668 68.5L63.667 68ZM64.333 68.667V68.167H70.333V68.667V69.167H64.333V68.667ZM70.333 68.667H69.833V64.667H70.333H70.833V68.667H70.333ZM70.333 64.667V65.167H64.333V64.667V64.167H70.333V64.667Z" fill="#8338EC" mask="url(#path-14-inside-7_0_1)"/>
<mask id="path-16-inside-8_0_1" fill="white">
<path d="M64.333 70C64.333 70.3682 64.0342 70.667 63.666 70.667H63V73.333H63.667C64.035 73.3332 64.333 73.6319 64.333 74H70.333V70H64.333Z"/>
</mask>
<path d="M64.333 70C64.333 70.3682 64.0342 70.667 63.666 70.667H63V73.333H63.667C64.035 73.3332 64.333 73.6319 64.333 74H70.333V70H64.333Z" fill="white"/>
<path d="M64.333 70H63.833V69.5H64.333V70ZM63 70.667H62.5V70.167H63V70.667ZM63 73.333V73.833H62.5V73.333H63ZM63.667 73.333L63.667 72.833L63.6672 72.833L63.667 73.333ZM64.333 74V74.5H63.833V74H64.333ZM70.333 74H70.833V74.5H70.333V74ZM70.333 70V69.5H70.833V70H70.333ZM64.333 70H64.833C64.833 70.6443 64.3103 71.167 63.666 71.167V70.667V70.167C63.7581 70.167 63.833 70.092 63.833 70H64.333ZM63.666 70.667V71.167H63V70.667V70.167H63.666V70.667ZM63 70.667H63.5V73.333H63H62.5V70.667H63ZM63 73.333V72.833H63.667V73.333V73.833H63V73.333ZM63.667 73.333L63.6672 72.833C64.3119 72.8333 64.833 73.3565 64.833 74H64.333H63.833C63.833 73.9073 63.7581 73.8331 63.6668 73.833L63.667 73.333ZM64.333 74V73.5H70.333V74V74.5H64.333V74ZM70.333 74H69.833V70H70.333H70.833V74H70.333ZM70.333 70V70.5H64.333V70V69.5H70.333V70Z" fill="#8338EC" mask="url(#path-16-inside-8_0_1)"/>
<mask id="path-18-inside-9_0_1" fill="white">
<path d="M63 73C63 73.3682 63.2988 73.667 63.667 73.667H64.333V76.333H63.667C63.2988 76.333 63 76.6318 63 77H57V73H63Z"/>
</mask>
<path d="M63 73C63 73.3682 63.2988 73.667 63.667 73.667H64.333V76.333H63.667C63.2988 76.333 63 76.6318 63 77H57V73H63Z" fill="white"/>
<path d="M63 73H63.5V72.5H63V73ZM64.333 73.667H64.833V73.167H64.333V73.667ZM64.333 76.333V76.833H64.833V76.333H64.333ZM63 77V77.5H63.5V77H63ZM57 77H56.5V77.5H57V77ZM57 73V72.5H56.5V73H57ZM63 73H62.5C62.5 73.6443 63.0227 74.167 63.667 74.167V73.667V73.167C63.5749 73.167 63.5 73.092 63.5 73H63ZM63.667 73.667V74.167H64.333V73.667V73.167H63.667V73.667ZM64.333 73.667H63.833V76.333H64.333H64.833V73.667H64.333ZM64.333 76.333V75.833H63.667V76.333V76.833H64.333V76.333ZM63.667 76.333V75.833C63.0227 75.833 62.5 76.3557 62.5 77H63H63.5C63.5 76.908 63.5749 76.833 63.667 76.833V76.333ZM63 77V76.5H57V77V77.5H63V77ZM57 77H57.5V73H57H56.5V77H57ZM57 73V73.5H63V73V72.5H57V73Z" fill="#8338EC" mask="url(#path-18-inside-9_0_1)"/>
<mask id="path-20-inside-10_0_1" fill="white">
<path d="M63 78.333C63 78.7012 63.2988 79 63.667 79H64.333V81.667H63.667C63.2989 81.667 63.0002 81.965 63 82.333H57V78.333H63Z"/>
</mask>
<path d="M63 78.333C63 78.7012 63.2988 79 63.667 79H64.333V81.667H63.667C63.2989 81.667 63.0002 81.965 63 82.333H57V78.333H63Z" fill="white"/>
<path d="M63 78.333H63.5V77.833H63V78.333ZM64.333 79H64.833V78.5H64.333V79ZM64.333 81.667V82.167H64.833V81.667H64.333ZM63 82.333V82.833H63.4998L63.5 82.3332L63 82.333ZM57 82.333H56.5V82.833H57V82.333ZM57 78.333V77.833H56.5V78.333H57ZM63 78.333H62.5C62.5 78.9773 63.0227 79.5 63.667 79.5V79V78.5C63.5749 78.5 63.5 78.4251 63.5 78.333H63ZM63.667 79V79.5H64.333V79V78.5H63.667V79ZM64.333 79H63.833V81.667H64.333H64.833V79H64.333ZM64.333 81.667V81.167H63.667V81.667V82.167H64.333V81.667ZM63.667 81.667V81.167C63.0235 81.167 62.5003 81.6881 62.5 82.3328L63 82.333L63.5 82.3332C63.5 82.2419 63.5743 82.167 63.667 82.167V81.667ZM63 82.333V81.833H57V82.333V82.833H63V82.333ZM57 82.333H57.5V78.333H57H56.5V82.333H57ZM57 78.333V78.833H63V78.333V77.833H57V78.333Z" fill="#8338EC" mask="url(#path-20-inside-10_0_1)"/>
<mask id="path-22-inside-11_0_1" fill="white">
<path d="M64.333 75.667C64.3328 76.035 64.0341 76.334 63.666 76.334H63V79H63.667C64.035 79.0002 64.333 79.2989 64.333 79.667H70.333V75.667H64.333Z"/>
</mask>
<path d="M64.333 75.667C64.3328 76.035 64.0341 76.334 63.666 76.334H63V79H63.667C64.035 79.0002 64.333 79.2989 64.333 79.667H70.333V75.667H64.333Z" fill="white"/>
<path d="M64.333 75.667L63.833 75.6668L63.8332 75.167H64.333V75.667ZM63 76.334H62.5V75.834H63V76.334ZM63 79V79.5H62.5V79H63ZM63.667 79L63.667 78.5L63.6672 78.5L63.667 79ZM64.333 79.667V80.167H63.833V79.667H64.333ZM70.333 79.667H70.833V80.167H70.333V79.667ZM70.333 75.667V75.167H70.833V75.667H70.333ZM64.333 75.667L64.833 75.6672C64.8327 76.311 64.3105 76.834 63.666 76.834V76.334V75.834C63.7577 75.834 63.833 75.7591 63.833 75.6668L64.333 75.667ZM63.666 76.334V76.834H63V76.334V75.834H63.666V76.334ZM63 76.334H63.5V79H63H62.5V76.334H63ZM63 79V78.5H63.667V79V79.5H63V79ZM63.667 79L63.6672 78.5C64.3119 78.5003 64.833 79.0235 64.833 79.667H64.333H63.833C63.833 79.5743 63.7581 79.5 63.6668 79.5L63.667 79ZM64.333 79.667V79.167H70.333V79.667V80.167H64.333V79.667ZM70.333 79.667H69.833V75.667H70.333H70.833V79.667H70.333ZM70.333 75.667V76.167H64.333V75.667V75.167H70.333V75.667Z" fill="#8338EC" mask="url(#path-22-inside-11_0_1)"/>
<mask id="path-24-inside-12_0_1" fill="white">
<path d="M64.333 81C64.333 81.3682 64.0342 81.667 63.666 81.667H63V84.333H63.667C64.035 84.3332 64.333 84.6319 64.333 85H70.333V81H64.333Z"/>
</mask>
<path d="M64.333 81C64.333 81.3682 64.0342 81.667 63.666 81.667H63V84.333H63.667C64.035 84.3332 64.333 84.6319 64.333 85H70.333V81H64.333Z" fill="white"/>
<path d="M64.333 81H63.833V80.5H64.333V81ZM63 81.667H62.5V81.167H63V81.667ZM63 84.333V84.833H62.5V84.333H63ZM63.667 84.333L63.667 83.833L63.6672 83.833L63.667 84.333ZM64.333 85V85.5H63.833V85H64.333ZM70.333 85H70.833V85.5H70.333V85ZM70.333 81V80.5H70.833V81H70.333ZM64.333 81H64.833C64.833 81.6443 64.3103 82.167 63.666 82.167V81.667V81.167C63.7581 81.167 63.833 81.092 63.833 81H64.333ZM63.666 81.667V82.167H63V81.667V81.167H63.666V81.667ZM63 81.667H63.5V84.333H63H62.5V81.667H63ZM63 84.333V83.833H63.667V84.333V84.833H63V84.333ZM63.667 84.333L63.6672 83.833C64.3119 83.8333 64.833 84.3565 64.833 85H64.333H63.833C63.833 84.9073 63.7581 84.8331 63.6668 84.833L63.667 84.333ZM64.333 85V84.5H70.333V85V85.5H64.333V85ZM70.333 85H69.833V81H70.333H70.833V85H70.333ZM70.333 81V81.5H64.333V81V80.5H70.333V81Z" fill="#8338EC" mask="url(#path-24-inside-12_0_1)"/>
<mask id="path-26-inside-13_0_1" fill="white">
<path d="M63 84C63 84.3682 63.2988 84.667 63.667 84.667H64.333V87.333H63.667C63.2988 87.333 63 87.6318 63 88H57V84H63Z"/>
</mask>
<path d="M63 84C63 84.3682 63.2988 84.667 63.667 84.667H64.333V87.333H63.667C63.2988 87.333 63 87.6318 63 88H57V84H63Z" fill="white"/>
<path d="M63 84H63.5V83.5H63V84ZM64.333 84.667H64.833V84.167H64.333V84.667ZM64.333 87.333V87.833H64.833V87.333H64.333ZM63 88V88.5H63.5V88H63ZM57 88H56.5V88.5H57V88ZM57 84V83.5H56.5V84H57ZM63 84H62.5C62.5 84.6443 63.0227 85.167 63.667 85.167V84.667V84.167C63.5749 84.167 63.5 84.092 63.5 84H63ZM63.667 84.667V85.167H64.333V84.667V84.167H63.667V84.667ZM64.333 84.667H63.833V87.333H64.333H64.833V84.667H64.333ZM64.333 87.333V86.833H63.667V87.333V87.833H64.333V87.333ZM63.667 87.333V86.833C63.0227 86.833 62.5 87.3557 62.5 88H63H63.5C63.5 87.908 63.5749 87.833 63.667 87.833V87.333ZM63 88V87.5H57V88V88.5H63V88ZM57 88H57.5V84H57H56.5V88H57ZM57 84V84.5H63V84V83.5H57V84Z" fill="#8338EC" mask="url(#path-26-inside-13_0_1)"/>
<mask id="path-28-inside-14_0_1" fill="white">
<path d="M63 89.333C63 89.7012 63.2988 90 63.667 90H64.333V92.667H63.667C63.2989 92.667 63.0002 92.965 63 93.333H57V89.333H63Z"/>
</mask>
<path d="M63 89.333C63 89.7012 63.2988 90 63.667 90H64.333V92.667H63.667C63.2989 92.667 63.0002 92.965 63 93.333H57V89.333H63Z" fill="white"/>
<path d="M63 89.333H63.5V88.833H63V89.333ZM64.333 90H64.833V89.5H64.333V90ZM64.333 92.667V93.167H64.833V92.667H64.333ZM63 93.333V93.833H63.4998L63.5 93.3332L63 93.333ZM57 93.333H56.5V93.833H57V93.333ZM57 89.333V88.833H56.5V89.333H57ZM63 89.333H62.5C62.5 89.9773 63.0227 90.5 63.667 90.5V90V89.5C63.5749 89.5 63.5 89.4251 63.5 89.333H63ZM63.667 90V90.5H64.333V90V89.5H63.667V90ZM64.333 90H63.833V92.667H64.333H64.833V90H64.333ZM64.333 92.667V92.167H63.667V92.667V93.167H64.333V92.667ZM63.667 92.667V92.167C63.0235 92.167 62.5003 92.6881 62.5 93.3328L63 93.333L63.5 93.3332C63.5 93.2419 63.5743 93.167 63.667 93.167V92.667ZM63 93.333V92.833H57V93.333V93.833H63V93.333ZM57 93.333H57.5V89.333H57H56.5V93.333H57ZM57 89.333V89.833H63V89.333V88.833H57V89.333Z" fill="#8338EC" mask="url(#path-28-inside-14_0_1)"/>
<mask id="path-30-inside-15_0_1" fill="white">
<path d="M64.333 86.667C64.3328 87.035 64.0341 87.334 63.666 87.334H63V90H63.667C64.035 90.0002 64.333 90.2989 64.333 90.667H70.333V86.667H64.333Z"/>
</mask>
<path d="M64.333 86.667C64.3328 87.035 64.0341 87.334 63.666 87.334H63V90H63.667C64.035 90.0002 64.333 90.2989 64.333 90.667H70.333V86.667H64.333Z" fill="white"/>
<path d="M64.333 86.667L63.833 86.6668L63.8332 86.167H64.333V86.667ZM63 87.334H62.5V86.834H63V87.334ZM63 90V90.5H62.5V90H63ZM63.667 90L63.667 89.5L63.6672 89.5L63.667 90ZM64.333 90.667V91.167H63.833V90.667H64.333ZM70.333 90.667H70.833V91.167H70.333V90.667ZM70.333 86.667V86.167H70.833V86.667H70.333ZM64.333 86.667L64.833 86.6672C64.8327 87.311 64.3105 87.834 63.666 87.834V87.334V86.834C63.7577 86.834 63.833 86.7591 63.833 86.6668L64.333 86.667ZM63.666 87.334V87.834H63V87.334V86.834H63.666V87.334ZM63 87.334H63.5V90H63H62.5V87.334H63ZM63 90V89.5H63.667V90V90.5H63V90ZM63.667 90L63.6672 89.5C64.3119 89.5003 64.833 90.0235 64.833 90.667H64.333H63.833C63.833 90.5743 63.7581 90.5 63.6668 90.5L63.667 90ZM64.333 90.667V90.167H70.333V90.667V91.167H64.333V90.667ZM70.333 90.667H69.833V86.667H70.333H70.833V90.667H70.333ZM70.333 86.667V87.167H64.333V86.667V86.167H70.333V86.667Z" fill="#8338EC" mask="url(#path-30-inside-15_0_1)"/>
<mask id="path-32-inside-16_0_1" fill="white">
<path d="M64.333 92C64.333 92.3682 64.0342 92.667 63.666 92.667H63V95.333H63.667C64.035 95.3332 64.333 95.6319 64.333 96H70.333V92H64.333Z"/>
</mask>
<path d="M64.333 92C64.333 92.3682 64.0342 92.667 63.666 92.667H63V95.333H63.667C64.035 95.3332 64.333 95.6319 64.333 96H70.333V92H64.333Z" fill="white"/>
<path d="M64.333 92H63.833V91.5H64.333V92ZM63 92.667H62.5V92.167H63V92.667ZM63 95.333V95.833H62.5V95.333H63ZM63.667 95.333L63.667 94.833L63.6672 94.833L63.667 95.333ZM64.333 96V96.5H63.833V96H64.333ZM70.333 96H70.833V96.5H70.333V96ZM70.333 92V91.5H70.833V92H70.333ZM64.333 92H64.833C64.833 92.6443 64.3103 93.167 63.666 93.167V92.667V92.167C63.7581 92.167 63.833 92.092 63.833 92H64.333ZM63.666 92.667V93.167H63V92.667V92.167H63.666V92.667ZM63 92.667H63.5V95.333H63H62.5V92.667H63ZM63 95.333V94.833H63.667V95.333V95.833H63V95.333ZM63.667 95.333L63.6672 94.833C64.3119 94.8333 64.833 95.3565 64.833 96H64.333H63.833C63.833 95.9073 63.7581 95.8331 63.6668 95.833L63.667 95.333ZM64.333 96V95.5H70.333V96V96.5H64.333V96ZM70.333 96H69.833V92H70.333H70.833V96H70.333ZM70.333 92V92.5H64.333V92V91.5H70.333V92Z" fill="#8338EC" mask="url(#path-32-inside-16_0_1)"/>
<mask id="path-34-inside-17_0_1" fill="white">
<path d="M63 95C63 95.3682 63.2988 95.667 63.667 95.667H64.333V98.333H63.667C63.2988 98.333 63 98.6318 63 99H57V95H63Z"/>
</mask>
<path d="M63 95C63 95.3682 63.2988 95.667 63.667 95.667H64.333V98.333H63.667C63.2988 98.333 63 98.6318 63 99H57V95H63Z" fill="white"/>
<path d="M63 95H63.5V94.5H63V95ZM64.333 95.667H64.833V95.167H64.333V95.667ZM64.333 98.333V98.833H64.833V98.333H64.333ZM63 99V99.5H63.5V99H63ZM57 99H56.5V99.5H57V99ZM57 95V94.5H56.5V95H57ZM63 95H62.5C62.5 95.6443 63.0227 96.167 63.667 96.167V95.667V95.167C63.5749 95.167 63.5 95.092 63.5 95H63ZM63.667 95.667V96.167H64.333V95.667V95.167H63.667V95.667ZM64.333 95.667H63.833V98.333H64.333H64.833V95.667H64.333ZM64.333 98.333V97.833H63.667V98.333V98.833H64.333V98.333ZM63.667 98.333V97.833C63.0227 97.833 62.5 98.3557 62.5 99H63H63.5C63.5 98.908 63.5749 98.833 63.667 98.833V98.333ZM63 99V98.5H57V99V99.5H63V99ZM57 99H57.5V95H57H56.5V99H57ZM57 95V95.5H63V95V94.5H57V95Z" fill="#8338EC" mask="url(#path-34-inside-17_0_1)"/>
<path d="M64 87C68.9706 87 73 91.0294 73 96C73 100.971 68.9706 105 64 105C59.0294 105 55 100.971 55 96C55 91.0294 59.0294 87 64 87Z" fill="#8338EC"/>
<path d="M73 96C73 91.0294 68.9706 87 64 87C59.0294 87 55 91.0294 55 96C55 100.971 59.0294 105 64 105C68.9706 105 73 100.971 73 96ZM77 96C77 103.18 71.1797 109 64 109C56.8203 109 51 103.18 51 96C51 88.8203 56.8203 83 64 83C71.1797 83 77 88.8203 77 96Z" fill="white"/>
</svg>
